<svg xmlns="http://www.w3.org/2000/svg" viewBox="0 0 64 64" fill="none">
  <path d="M18 16.5C18 13.462 20.462 11 23.5 11H39.2C42.956 11 46 14.044 46 17.8V31.8C46 33.125 44.925 34.2 43.6 34.2C42.275 34.2 41.2 33.125 41.2 31.8V18.2C41.2 17.537 40.663 17 40 17H23.8C23.137 17 22.6 17.537 22.6 18.2V41.2C22.6 41.863 23.137 42.4 23.8 42.4H33.4C34.725 42.4 35.8 43.475 35.8 44.8C35.8 46.125 34.725 47.2 33.4 47.2H23.5C20.462 47.2 18 44.738 18 41.7V16.5Z" fill="currentColor"/>
  <path d="M26.2 22.8C26.2 21.696 27.096 20.8 28.2 20.8H40.8C41.904 20.8 42.8 21.696 42.8 22.8C42.8 23.904 41.904 24.8 40.8 24.8H28.2C27.096 24.8 26.2 23.904 26.2 22.8Z" fill="currentColor"/>
  <path d="M26.2 29.8C26.2 28.696 27.096 27.8 28.2 27.8H40.8C41.904 27.8 42.8 28.696 42.8 29.8C42.8 30.904 41.904 31.8 40.8 31.8H28.2C27.096 31.8 26.2 30.904 26.2 29.8Z" fill="currentColor"/>
  <path d="M26.2 36.8C26.2 35.696 27.096 34.8 28.2 34.8H34.6C35.704 34.8 36.6 35.696 36.6 36.8C36.6 37.904 35.704 38.8 34.6 38.8H28.2C27.096 38.8 26.2 37.904 26.2 36.8Z" fill="currentColor"/>
  <path d="M47.9 35.9C49.191 34.609 51.284 34.609 52.575 35.9L55.1 38.425C56.391 39.716 56.391 41.809 55.1 43.1L43.55 54.65C43.174 55.026 42.684 55.268 42.157 55.338L35.9 56.171C34.985 56.293 34.207 55.515 34.329 54.6L35.162 48.343C35.232 47.816 35.474 47.326 35.85 46.95L47.9 35.9ZM49.85 39.05L39.73 49.17L39.38 51.8L42.01 51.45L52.13 41.33L49.85 39.05Z" fill="currentColor"/>
</svg>