<svg xmlns="http://www.w3.org/2000/svg" viewBox="0 0 64 64" aria-hidden="true">
  <path fill="currentColor" fill-rule="evenodd" d="M43.96 8.77c1.02-1.02 2.67-1.02 3.69 0l6.59 6.59c1.02 1.02 1.02 2.67 0 3.69l-3.26 3.26a.9.9 0 0 1-1.27 0l-8.99-8.99a.9.9 0 0 1 0-1.27l3.24-3.28Zm-26.3 27.86a1.2 1.2 0 0 1 .35-.85L38.7 15.09a.9.9 0 0 1 1.27 0l9.01 9.01a.9.9 0 0 1 0 1.27L28.31 46.04a1.2 1.2 0 0 1-.85.35h-8.6a1.2 1.2 0 0 1-1.2-1.2v-8.56Zm4.58 1.37v3.8h3.8l18.95-18.95-5.17-5.17L22.24 38Z" clip-rule="evenodd"/>
</svg>