<svg xmlns="http://www.w3.org/2000/svg" viewBox="0 0 24 24" fill="none">
  <path
    d="M6.62 10.79C8.06 13.62 10.38 15.94 13.21 17.38L15.41 15.18C15.68 14.91 16.08 14.82 16.43 14.94C17.55 15.31 18.75 15.5 20 15.5C20.55 15.5 21 15.95 21 16.5V20C21 20.55 20.55 21 20 21C10.61 21 3 13.39 3 4C3 3.45 3.45 3 4 3H7.5C8.05 3 8.5 3.45 8.5 4C8.5 5.25 8.69 6.45 9.06 7.57C9.18 7.92 9.09 8.32 8.82 8.59L6.62 10.79Z"
    stroke="currentColor"
    stroke-width="1.6"
    stroke-linecap="round"
    stroke-linejoin="round"
  />
</svg>